<svg width="242" height="248" viewBox="0 0 242 248" fill="none" xmlns="http://www.w3.org/2000/svg">
<g filter="url(#filter0_d_1_592)">
<rect x="18" y="18" width="200" height="200" rx="20" fill="#FF5B5A"/>
</g>
<rect x="40" y="49" width="147" height="31" rx="8" fill="white"/>
<path d="M61.0651 68.23C60.2531 68.818 59.2357 69.112 58.0131 69.112C56.5384 69.112 55.3484 68.678 54.4431 67.81C53.5471 66.942 53.0991 65.7613 53.0991 64.268C53.0991 62.8213 53.5517 61.65 54.4571 60.754C55.3717 59.8487 56.5291 59.396 57.9291 59.396C59.0211 59.396 59.9357 59.606 60.6731 60.026V61.51C59.8704 61.006 58.9744 60.754 57.9851 60.754C56.9771 60.754 56.1604 61.076 55.5351 61.72C54.9191 62.364 54.6111 63.2133 54.6111 64.268C54.6111 65.3507 54.9144 66.2047 55.5211 66.83C56.1371 67.4553 56.9817 67.768 58.0551 67.768C58.6151 67.768 59.1471 67.6653 59.6511 67.46V64.856H57.7331V63.61H61.0651V68.132H61.0511L61.0651 68.23ZM68.2424 68.622C67.7197 68.9207 67.029 69.07 66.1704 69.07C65.069 69.07 64.1917 68.7387 63.5384 68.076C62.885 67.4133 62.5584 66.5453 62.5584 65.472C62.5584 64.3333 62.857 63.442 63.4544 62.798C64.0517 62.1447 64.8124 61.818 65.7364 61.818C66.6417 61.818 67.3604 62.1027 67.8924 62.672C68.4244 63.232 68.6904 64.044 68.6904 65.108C68.6904 65.3973 68.6624 65.7007 68.6064 66.018H63.9444C64.0377 66.634 64.299 67.1053 64.7284 67.432C65.1577 67.7587 65.699 67.922 66.3524 67.922C67.1084 67.922 67.7384 67.7447 68.2424 67.39V68.622ZM65.7644 62.952C65.2977 62.952 64.8964 63.1247 64.5604 63.47C64.2244 63.806 64.0144 64.296 63.9304 64.94H67.3604V64.688C67.3417 64.156 67.197 63.736 66.9264 63.428C66.6557 63.1107 66.2684 62.952 65.7644 62.952ZM74.0298 68.818C73.7218 68.986 73.3438 69.07 72.8958 69.07C71.4305 69.07 70.6978 68.328 70.6978 66.844V62.966H69.5918V61.902H70.6978V60.166H72.0838V61.902H73.9458V62.966H72.0838V66.872C72.0838 67.5533 72.4105 67.894 73.0638 67.894C73.4465 67.894 73.7685 67.7913 74.0298 67.586V68.818ZM81.6518 65.654H80.3078V69H78.8658V59.564H81.5678C82.6504 59.564 83.5091 59.8533 84.1438 60.432C84.7784 61.0013 85.0958 61.734 85.0958 62.63C85.0958 63.526 84.7738 64.254 84.1298 64.814C83.4951 65.374 82.6691 65.654 81.6518 65.654ZM81.5118 60.754H80.3078V64.464H81.5397C82.2211 64.464 82.7391 64.296 83.0938 63.96C83.4578 63.624 83.6398 63.1807 83.6398 62.63C83.6398 62.0513 83.4578 61.594 83.0938 61.258C82.7298 60.922 82.2024 60.754 81.5118 60.754ZM87.879 69H86.507V61.902H87.879V63.148C88.2243 62.2707 88.845 61.832 89.741 61.832C89.8717 61.832 90.0163 61.846 90.175 61.874V63.218C89.979 63.134 89.7597 63.092 89.517 63.092C89.041 63.092 88.649 63.302 88.341 63.722C88.033 64.142 87.879 64.6413 87.879 65.22V69ZM96.5432 68.622C96.0205 68.9207 95.3298 69.07 94.4712 69.07C93.3698 69.07 92.4925 68.7387 91.8392 68.076C91.1858 67.4133 90.8592 66.5453 90.8592 65.472C90.8592 64.3333 91.1578 63.442 91.7552 62.798C92.3525 62.1447 93.1132 61.818 94.0372 61.818C94.9425 61.818 95.6612 62.1027 96.1932 62.672C96.7252 63.232 96.9912 64.044 96.9912 65.108C96.9912 65.3973 96.9632 65.7007 96.9072 66.018H92.2452C92.3385 66.634 92.5998 67.1053 93.0292 67.432C93.4585 67.7587 93.9998 67.922 94.6532 67.922C95.4092 67.922 96.0392 67.7447 96.5432 67.39V68.622ZM94.0652 62.952C93.5985 62.952 93.1972 63.1247 92.8612 63.47C92.5252 63.806 92.3152 64.296 92.2312 64.94H95.6612V64.688C95.6425 64.156 95.4978 63.736 95.2272 63.428C94.9565 63.1107 94.5692 62.952 94.0652 62.952ZM108.365 69H106.993V64.52C106.993 63.5027 106.582 62.994 105.761 62.994C105.35 62.994 104.981 63.176 104.655 63.54C104.337 63.904 104.179 64.4407 104.179 65.15V69H102.807V64.52C102.807 63.5027 102.391 62.994 101.561 62.994C101.159 62.994 100.795 63.176 100.469 63.54C100.142 63.904 99.9786 64.4407 99.9786 65.15V69H98.6066V61.902H99.9786V63.036C100.38 62.2147 101.047 61.804 101.981 61.804C103.045 61.804 103.726 62.2613 104.025 63.176C104.221 62.7373 104.505 62.4013 104.879 62.168C105.252 61.9253 105.672 61.804 106.139 61.804C106.867 61.804 107.417 62.0187 107.791 62.448C108.173 62.8773 108.365 63.47 108.365 64.226V69ZM111.67 69H110.284V61.902H111.67V69ZM111.838 59.732C111.838 59.9653 111.754 60.166 111.586 60.334C111.418 60.502 111.212 60.586 110.97 60.586C110.727 60.586 110.522 60.5067 110.354 60.348C110.195 60.18 110.116 59.9747 110.116 59.732C110.116 59.4893 110.195 59.284 110.354 59.116C110.522 58.948 110.727 58.864 110.97 58.864C111.212 58.864 111.418 58.948 111.586 59.116C111.754 59.284 111.838 59.4893 111.838 59.732ZM119.441 69H118.069V67.782C117.696 68.65 116.959 69.084 115.857 69.084C115.157 69.084 114.602 68.8787 114.191 68.468C113.781 68.048 113.575 67.474 113.575 66.746V61.902H114.961V66.41C114.961 66.8953 115.078 67.2687 115.311 67.53C115.554 67.782 115.885 67.908 116.305 67.908C116.837 67.908 117.262 67.7213 117.579 67.348C117.906 66.9747 118.069 66.4473 118.069 65.766V61.902H119.441V69ZM131.128 69H129.756V64.52C129.756 63.5027 129.346 62.994 128.524 62.994C128.114 62.994 127.745 63.176 127.418 63.54C127.101 63.904 126.942 64.4407 126.942 65.15V69H125.57V64.52C125.57 63.5027 125.155 62.994 124.324 62.994C123.923 62.994 123.559 63.176 123.232 63.54C122.906 63.904 122.742 64.4407 122.742 65.15V69H121.37V61.902H122.742V63.036C123.144 62.2147 123.811 61.804 124.744 61.804C125.808 61.804 126.49 62.2613 126.788 63.176C126.984 62.7373 127.269 62.4013 127.642 62.168C128.016 61.9253 128.436 61.804 128.902 61.804C129.63 61.804 130.181 62.0187 130.554 62.448C130.937 62.8773 131.128 63.47 131.128 64.226V69ZM138.555 67.978C139.003 67.978 139.353 67.8567 139.605 67.614C139.866 67.362 139.997 67.0353 139.997 66.634V65.836H138.933C138.41 65.836 138.014 65.9387 137.743 66.144C137.482 66.3493 137.351 66.6107 137.351 66.928C137.351 67.2547 137.454 67.5113 137.659 67.698C137.864 67.8847 138.163 67.978 138.555 67.978ZM140.039 68.16C139.675 68.7573 139.036 69.056 138.121 69.056C137.449 69.056 136.908 68.8647 136.497 68.482C136.096 68.09 135.895 67.5953 135.895 66.998C135.895 66.3167 136.152 65.7893 136.665 65.416C137.178 65.0333 137.897 64.842 138.821 64.842H139.997V64.436C139.997 63.9507 139.88 63.5867 139.647 63.344C139.414 63.092 139.026 62.966 138.485 62.966C137.729 62.966 137.043 63.176 136.427 63.596V62.266C136.978 61.9487 137.706 61.79 138.611 61.79C140.468 61.79 141.397 62.6907 141.397 64.492V69H140.039V68.16ZM148.257 68.72C147.8 69 147.217 69.14 146.507 69.14C145.397 69.14 144.51 68.79 143.847 68.09C143.185 67.39 142.853 66.5173 142.853 65.472C142.853 64.4547 143.185 63.5867 143.847 62.868C144.519 62.14 145.425 61.776 146.563 61.776C147.179 61.776 147.744 61.9067 148.257 62.168V63.428C147.8 63.1387 147.282 62.994 146.703 62.994C145.966 62.994 145.373 63.2273 144.925 63.694C144.487 64.1607 144.267 64.758 144.267 65.486C144.286 66.2047 144.505 66.7973 144.925 67.264C145.345 67.7213 145.933 67.95 146.689 67.95C147.249 67.95 147.772 67.796 148.257 67.488V68.72ZM154.847 68.72C154.39 69 153.806 69.14 153.097 69.14C151.986 69.14 151.1 68.79 150.437 68.09C149.774 67.39 149.443 66.5173 149.443 65.472C149.443 64.4547 149.774 63.5867 150.437 62.868C151.109 62.14 152.014 61.776 153.153 61.776C153.769 61.776 154.334 61.9067 154.847 62.168V63.428C154.39 63.1387 153.872 62.994 153.293 62.994C152.556 62.994 151.963 63.2273 151.515 63.694C151.076 64.1607 150.857 64.758 150.857 65.486C150.876 66.2047 151.095 66.7973 151.515 67.264C151.935 67.7213 152.523 67.95 153.279 67.95C153.839 67.95 154.362 67.796 154.847 67.488V68.72ZM161.717 68.622C161.194 68.9207 160.504 69.07 159.645 69.07C158.544 69.07 157.666 68.7387 157.013 68.076C156.36 67.4133 156.033 66.5453 156.033 65.472C156.033 64.3333 156.332 63.442 156.929 62.798C157.526 62.1447 158.287 61.818 159.211 61.818C160.116 61.818 160.835 62.1027 161.367 62.672C161.899 63.232 162.165 64.044 162.165 65.108C162.165 65.3973 162.137 65.7007 162.081 66.018H157.419C157.512 66.634 157.774 67.1053 158.203 67.432C158.632 67.7587 159.174 67.922 159.827 67.922C160.583 67.922 161.213 67.7447 161.717 67.39V68.622ZM159.239 62.952C158.772 62.952 158.371 63.1247 158.035 63.47C157.699 63.806 157.489 64.296 157.405 64.94H160.835V64.688C160.816 64.156 160.672 63.736 160.401 63.428C160.13 63.1107 159.743 62.952 159.239 62.952ZM168.218 67.04C168.218 67.6747 167.994 68.174 167.546 68.538C167.098 68.8927 166.492 69.07 165.726 69.07C164.886 69.07 164.186 68.93 163.626 68.65V67.348C164.28 67.7493 164.956 67.95 165.656 67.95C166.02 67.95 166.3 67.8753 166.496 67.726C166.702 67.5767 166.804 67.3807 166.804 67.138C166.804 66.9327 166.725 66.7507 166.566 66.592C166.408 66.424 166.244 66.3027 166.076 66.228C165.918 66.144 165.642 66.018 165.25 65.85C164.14 65.3927 163.584 64.7207 163.584 63.834C163.584 63.2087 163.818 62.7187 164.284 62.364C164.751 62.0093 165.334 61.832 166.034 61.832C166.8 61.832 167.397 61.9347 167.826 62.14V63.386C167.369 63.1153 166.781 62.98 166.062 62.98C165.736 62.98 165.474 63.0547 165.278 63.204C165.092 63.3533 164.998 63.5493 164.998 63.792C164.998 63.8573 165.003 63.9227 165.012 63.988C165.031 64.044 165.059 64.1047 165.096 64.17C165.134 64.226 165.166 64.2773 165.194 64.324C165.232 64.3613 165.288 64.4033 165.362 64.45C165.437 64.4967 165.493 64.5387 165.53 64.576C165.577 64.604 165.647 64.6413 165.74 64.688C165.843 64.7347 165.918 64.772 165.964 64.8C166.011 64.8187 166.09 64.856 166.202 64.912C166.324 64.9587 166.408 64.9913 166.454 65.01C167.005 65.2527 167.434 65.528 167.742 65.836C168.06 66.1347 168.218 66.536 168.218 67.04ZM174.084 67.04C174.084 67.6747 173.86 68.174 173.412 68.538C172.964 68.8927 172.357 69.07 171.592 69.07C170.752 69.07 170.052 68.93 169.492 68.65V67.348C170.145 67.7493 170.822 67.95 171.522 67.95C171.886 67.95 172.166 67.8753 172.362 67.726C172.567 67.5767 172.67 67.3807 172.67 67.138C172.67 66.9327 172.59 66.7507 172.432 66.592C172.273 66.424 172.11 66.3027 171.942 66.228C171.783 66.144 171.508 66.018 171.116 65.85C170.005 65.3927 169.45 64.7207 169.45 63.834C169.45 63.2087 169.683 62.7187 170.15 62.364C170.616 62.0093 171.2 61.832 171.9 61.832C172.665 61.832 173.262 61.9347 173.692 62.14V63.386C173.234 63.1153 172.646 62.98 171.928 62.98C171.601 62.98 171.34 63.0547 171.144 63.204C170.957 63.3533 170.864 63.5493 170.864 63.792C170.864 63.8573 170.868 63.9227 170.878 63.988C170.896 64.044 170.924 64.1047 170.962 64.17C170.999 64.226 171.032 64.2773 171.06 64.324C171.097 64.3613 171.153 64.4033 171.228 64.45C171.302 64.4967 171.358 64.5387 171.396 64.576C171.442 64.604 171.512 64.6413 171.606 64.688C171.708 64.7347 171.783 64.772 171.83 64.8C171.876 64.8187 171.956 64.856 172.068 64.912C172.189 64.9587 172.273 64.9913 172.32 65.01C172.87 65.2527 173.3 65.528 173.608 65.836C173.925 66.1347 174.084 66.536 174.084 67.04Z" fill="#FF5B5A"/>
<path fill-rule="evenodd" clip-rule="evenodd" d="M169.825 114.481C171.801 112.155 173.139 109.305 172.915 106.111C172.271 96.9088 159.493 98.9332 157.007 103.578C154.521 108.222 154.817 120.003 158.029 120.833C159.31 121.164 162.04 120.353 164.817 118.675L163.074 131.04H173.369L169.825 114.481Z" fill="#915B3C"/>
<path fill-rule="evenodd" clip-rule="evenodd" d="M170.615 116.552C171.908 110.79 175.589 106.862 175.026 104.286C174.652 102.569 173.653 101.501 172.03 101.083C171.19 97.6787 168.483 96.2308 163.908 96.7391C157.045 97.5016 152.856 100.359 154.665 106.645C156.328 106.645 158.335 106.042 161.111 107.075C161.992 107.403 162.622 108.419 163.001 110.124H164.255C165.473 108.101 166.673 107.357 167.856 107.894C169.039 108.43 169.308 109.732 168.663 111.801L169.281 116.552H170.615Z" fill="#191847"/>
<path fill-rule="evenodd" clip-rule="evenodd" d="M202.108 184.79H152.779C148.989 184.79 145.916 187.87 145.916 191.67V231.23C145.916 235.03 148.989 238.11 152.779 238.11H202.108C205.898 238.11 208.971 235.03 208.971 231.23V191.67C208.971 187.87 205.898 184.79 202.108 184.79ZM195.245 196.83C196.192 196.83 196.961 197.6 196.961 198.55V224.35C196.961 225.3 196.192 226.07 195.245 226.07H159.642C158.695 226.07 157.926 225.3 157.926 224.35V198.55C157.926 197.6 158.695 196.83 159.642 196.83H195.245Z" fill="#C5CFD6"/>
<path fill-rule="evenodd" clip-rule="evenodd" d="M103.382 235.96C111.839 225.607 117.561 217.932 120.549 212.935C125.664 204.379 129.85 196.765 131.172 193.856C134.322 186.921 123.919 183.673 121.564 186.908C118 191.804 110.39 207.212 98.7316 233.13L103.382 235.96Z" fill="#B28B67"/>
<path fill-rule="evenodd" clip-rule="evenodd" d="M120.712 232.95L136.451 193.234C139.817 185.994 123.561 181.235 121.087 184.604C115.47 192.254 102.121 222.43 100.447 224.709L120.712 232.95Z" fill="#2F3676"/>
<path fill-rule="evenodd" clip-rule="evenodd" d="M162.631 224.982C159.565 220.499 148.415 205.417 142.342 199.178C140.596 197.384 138.893 195.663 137.283 194.06C132.495 189.293 122.957 197.309 127.736 201.651C139.637 212.464 157.002 227.061 158.453 228.362C160.486 230.186 164.557 227.799 162.631 224.982Z" fill="#915B3C"/>
<path fill-rule="evenodd" clip-rule="evenodd" d="M161.917 222.958C162.972 223.829 163.659 224.54 163.977 225.092C164.363 225.763 164.815 226.807 165.333 228.223C164.556 228.673 157.57 232.717 144.377 240.355C142.794 238.868 142.548 237.712 143.638 236.889C144.729 236.066 145.629 235.372 146.338 234.807L153.575 224.819C153.714 224.627 153.982 224.584 154.174 224.724C154.177 224.726 154.18 224.728 154.183 224.731L155.685 225.89C157.064 225.768 158.092 225.511 158.771 225.118C159.323 224.798 159.957 224.134 160.672 223.125L160.672 223.125C160.946 222.738 161.482 222.647 161.868 222.921C161.885 222.933 161.901 222.945 161.917 222.958Z" fill="#E4E4E4"/>
<path fill-rule="evenodd" clip-rule="evenodd" d="M107.02 234.413C107.499 235.697 107.739 236.658 107.739 237.295C107.739 238.071 107.611 239.202 107.353 240.69C106.455 240.69 98.391 240.69 83.1594 240.69C82.5307 238.606 82.8936 237.482 84.2482 237.316C85.6027 237.149 86.7279 236.999 87.6239 236.866L98.8688 231.84C99.0851 231.744 99.3387 231.841 99.4352 232.058C99.4368 232.062 99.4384 232.065 99.44 232.069L100.163 233.827C101.417 234.413 102.436 234.706 103.22 234.706C103.857 234.706 104.736 234.449 105.859 233.933L105.859 233.933C106.289 233.735 106.799 233.924 106.996 234.356C107.005 234.375 107.012 234.394 107.02 234.413Z" fill="#E4E4E4"/>
<path fill-rule="evenodd" clip-rule="evenodd" d="M142.114 195.218C155.196 193.081 163.958 191.62 168.401 190.835C181.065 188.597 184.758 181.765 182.574 166.86H159.241C156.154 167.754 143.252 173.282 120.536 183.445C116.449 185.479 117.21 191.475 117.957 193.451C117.988 193.532 124.877 205.367 138.627 228.957L157.714 216.767L142.078 196.654C141.666 195.82 141.677 195.341 142.114 195.218Z" fill="#5C63AB"/>
<path fill-rule="evenodd" clip-rule="evenodd" d="M140.433 161.231L126.75 171.303C123.039 172.307 119.939 173.556 117.449 175.05C116.861 175.587 116.15 176.675 118.589 176.487C121.029 176.299 123.603 176.211 123.939 177.045C124.276 177.879 122.8 178.877 123.48 180.002C123.934 180.752 126.076 178.871 129.908 174.359L143.458 168.726L140.433 161.231ZM192.968 161.579L184.004 161.614C189.539 179.525 192.527 189.029 192.968 190.124C193.96 192.59 191.86 196.346 190.962 198.364C193.887 199.676 193.575 194.816 197.266 196.537C200.634 198.108 203.197 200.955 207.088 198.548C207.567 198.252 208.091 197.137 206.824 196.267C203.668 194.097 199.12 190.3 198.505 189.051C197.667 187.346 195.822 178.189 192.968 161.579Z" fill="#915B3C"/>
<path fill-rule="evenodd" clip-rule="evenodd" d="M167.494 123.873L163.785 123.235C150.023 135.153 144.37 158.048 127.501 170.176L131.561 175.221C160.826 171.589 168.079 143.663 167.494 123.873Z" fill="#E87613"/>
<path fill-rule="evenodd" clip-rule="evenodd" d="M183.663 170.6C168.791 170.6 157.851 170.6 150.844 170.6C149.344 170.6 149.627 168.429 149.843 167.334C152.345 154.692 162.112 141.064 162.112 123.068L171.579 121.58C179.409 134.204 182.117 149.747 183.663 170.6Z" fill="#DDE3E9"/>
<path fill-rule="evenodd" clip-rule="evenodd" d="M183.399 133.989C184.774 133.593 185.863 132.669 186.666 131.217C190.126 124.958 188.876 121.512 185.179 120.38C181.481 119.247 178.183 121.58 172.292 121.58C171.971 121.58 171.678 121.6 171.411 121.64L168.448 121.81C159.945 150.698 157.6 169.971 161.413 179.63H187.244C188.775 183.208 190.239 186.218 191.638 188.66H198.676C199.339 167.189 194.246 148.965 183.399 133.989Z" fill="#FF9B21"/>
<path fill-rule="evenodd" clip-rule="evenodd" d="M181.619 164.794C180.806 171.608 179.486 176.553 177.657 179.63H187.244C185.458 175.457 183.583 170.512 181.619 164.794Z" fill="black" fill-opacity="0.1"/>
<defs>
<filter id="filter0_d_1_592" x="0" y="0" width="236" height="236" filterUnits="userSpaceOnUse" color-interpolation-filters="sRGB">
<feFlood flood-opacity="0" result="BackgroundImageFix"/>
<feColorMatrix in="SourceAlpha" type="matrix" values="0 0 0 0 0 0 0 0 0 0 0 0 0 0 0 0 0 0 127 0" result="hardAlpha"/>
<feOffset/>
<feGaussianBlur stdDeviation="9"/>
<feComposite in2="hardAlpha" operator="out"/>
<feColorMatrix type="matrix" values="0 0 0 0 0 0 0 0 0 0 0 0 0 0 0 0 0 0 0.04 0"/>
<feBlend mode="normal" in2="BackgroundImageFix" result="effect1_dropShadow_1_592"/>
<feBlend mode="normal" in="SourceGraphic" in2="effect1_dropShadow_1_592" result="shape"/>
</filter>
</defs>
</svg>
