<svg width="40" height="40" viewBox="0 0 40 40" fill="none" xmlns="http://www.w3.org/2000/svg">
<g clip-path="url(#clip0_3310_372)">
<rect width="40" height="40" rx="12" fill="#E91E63" fill-opacity="0.09"/>
<path d="M20.6778 27.957C20.9525 28.021 20.9777 28.3808 20.7101 28.47L19.1301 28.99C15.1601 30.27 13.0701 29.2 11.7801 25.23L10.5001 21.28C9.2201 17.31 10.2801 15.21 14.2501 13.93L14.7741 13.7565C15.177 13.6231 15.569 14.0271 15.4546 14.4358C15.3979 14.6384 15.3434 14.8498 15.2901 15.07L14.3101 19.26C13.2101 23.97 14.8201 26.57 19.5301 27.69L20.6778 27.957Z" fill="#E91E63"/>
<path d="M25.1701 11.21L23.5001 10.82C20.1601 10.03 18.1701 10.68 17.0001 13.1C16.7001 13.71 16.4601 14.45 16.2601 15.3L15.2801 19.49C14.3001 23.67 15.5901 25.73 19.7601 26.72L21.4401 27.12C22.0201 27.26 22.5601 27.35 23.0601 27.39C26.1801 27.69 27.8401 26.23 28.6801 22.62L29.6601 18.44C30.6401 14.26 29.3601 12.19 25.1701 11.21ZM23.2901 21.33C23.2001 21.67 22.9001 21.89 22.5601 21.89C22.5001 21.89 22.4401 21.88 22.3701 21.87L19.4601 21.13C19.0601 21.03 18.8201 20.62 18.9201 20.22C19.0201 19.82 19.4301 19.58 19.8301 19.68L22.7401 20.42C23.1501 20.52 23.3901 20.93 23.2901 21.33ZM26.2201 17.95C26.1301 18.29 25.8301 18.51 25.4901 18.51C25.4301 18.51 25.3701 18.5 25.3001 18.49L20.4501 17.26C20.0501 17.16 19.8101 16.75 19.9101 16.35C20.0101 15.95 20.4201 15.71 20.8201 15.81L25.6701 17.04C26.0801 17.13 26.3201 17.54 26.2201 17.95Z" fill="#E91E63"/>
</g>
<defs>
<clipPath id="clip0_3310_372">
<rect width="40" height="40" rx="12" fill="white"/>
</clipPath>
</defs>
</svg>
