<svg width="16" height="16" viewBox="0 0 16 16" fill="none" xmlns="http://www.w3.org/2000/svg">
<path d="M15.2562 9.99863L14.1049 9.01425C14.1594 8.68027 14.1875 8.33925 14.1875 7.99824C14.1875 7.65722 14.1594 7.31621 14.1049 6.98223L15.2562 5.99785C15.3431 5.92351 15.4052 5.82449 15.4344 5.71396C15.4636 5.60344 15.4585 5.48664 15.4197 5.3791L15.4039 5.3334C15.0869 4.44751 14.6123 3.62628 14.0029 2.90938L13.9713 2.87247C13.8973 2.78555 13.7988 2.72307 13.6887 2.69325C13.5785 2.66344 13.4619 2.66771 13.3543 2.70548L11.9252 3.21348C11.3978 2.78106 10.809 2.44005 10.1726 2.20098L9.89666 0.706847C9.87584 0.594421 9.8213 0.490992 9.7403 0.410301C9.65929 0.329609 9.55565 0.275475 9.44314 0.25509L9.39568 0.246301C8.47986 0.081067 7.51658 0.081067 6.60076 0.246301L6.5533 0.25509C6.44079 0.275475 6.33715 0.329609 6.25615 0.410301C6.17514 0.490992 6.1206 0.594421 6.09978 0.706847L5.82205 2.20802C5.1908 2.44713 4.60295 2.78796 4.08182 3.217L2.64217 2.70548C2.53453 2.66741 2.41785 2.66299 2.30765 2.69282C2.19744 2.72265 2.09892 2.78531 2.02517 2.87247L1.99353 2.90938C1.38488 3.62679 0.910327 4.44788 0.592557 5.3334L0.576737 5.3791C0.497635 5.59883 0.562674 5.84492 0.740214 5.99785L1.90564 6.99277C1.85115 7.32324 1.82478 7.66074 1.82478 7.99648C1.82478 8.33398 1.85115 8.67148 1.90564 9.00019L0.740214 9.99511C0.65337 10.0695 0.591215 10.1685 0.562013 10.279C0.532812 10.3895 0.537947 10.5063 0.576737 10.6139L0.592557 10.6596C0.910721 11.5455 1.38182 12.3629 1.99353 13.0836L2.02517 13.1205C2.0991 13.2074 2.19762 13.2699 2.30776 13.2997C2.41791 13.3295 2.53449 13.3253 2.64217 13.2875L4.08182 12.776C4.60564 13.2066 5.19099 13.5476 5.82205 13.7849L6.09978 15.2861C6.1206 15.3985 6.17514 15.502 6.25615 15.5827C6.33715 15.6634 6.44079 15.7175 6.5533 15.7379L6.60076 15.7467C7.525 15.9128 8.47145 15.9128 9.39568 15.7467L9.44314 15.7379C9.55565 15.7175 9.65929 15.6634 9.7403 15.5827C9.8213 15.502 9.87584 15.3985 9.89666 15.2861L10.1726 13.792C10.8087 13.5535 11.4009 13.2114 11.9252 12.7795L13.3543 13.2875C13.4619 13.3256 13.5786 13.33 13.6888 13.3001C13.799 13.2703 13.8975 13.2077 13.9713 13.1205L14.0029 13.0836C14.6146 12.3611 15.0857 11.5455 15.4039 10.6596L15.4197 10.6139C15.4988 10.3976 15.4338 10.1516 15.2562 9.99863ZM12.8568 7.18965C12.9008 7.45508 12.9236 7.72754 12.9236 8C12.9236 8.27246 12.9008 8.54492 12.8568 8.81035L12.7408 9.51523L14.0539 10.6385C13.8548 11.0971 13.6036 11.5312 13.3051 11.9322L11.6738 11.3539L11.1219 11.8074C10.7017 12.1519 10.2342 12.4226 9.72791 12.6125L9.05818 12.8639L8.74353 14.5689C8.24708 14.6252 7.74585 14.6252 7.24939 14.5689L6.93474 12.8603L6.27029 12.6055C5.76932 12.4156 5.30349 12.1449 4.88689 11.8021L4.33494 11.3469L2.69314 11.9305C2.39432 11.5279 2.14471 11.0937 1.94432 10.6367L3.27146 9.50292L3.15721 8.7998C3.11502 8.53789 3.09217 8.26718 3.09217 8C3.09217 7.73105 3.11326 7.46211 3.15721 7.20019L3.27146 6.49707L1.94432 5.36328C2.14295 4.9045 2.39432 4.47207 2.69314 4.06954L4.33494 4.65313L4.88689 4.19786C5.30349 3.85508 5.76932 3.58438 6.27029 3.39454L6.9365 3.14317L7.25115 1.43458C7.7451 1.37833 8.24959 1.37833 8.74529 1.43458L9.05994 3.13965L9.72967 3.39102C10.2342 3.58086 10.7035 3.85157 11.1236 4.1961L11.6756 4.64961L13.3068 4.07129C13.6056 4.47383 13.8553 4.90801 14.0556 5.36504L12.7426 6.48828L12.8568 7.18965ZM7.99998 4.73047C6.29139 4.73047 4.90623 6.11563 4.90623 7.82422C4.90623 9.53281 6.29139 10.918 7.99998 10.918C9.70857 10.918 11.0937 9.53281 11.0937 7.82422C11.0937 6.11563 9.70857 4.73047 7.99998 4.73047ZM9.39217 9.2164C9.20957 9.39952 8.99257 9.54474 8.75364 9.64369C8.51471 9.74263 8.25858 9.79337 7.99998 9.79296C7.47439 9.79296 6.98045 9.5873 6.60779 9.2164C6.42467 9.0338 6.27946 8.8168 6.18051 8.57788C6.08156 8.33895 6.03083 8.08282 6.03123 7.82422C6.03123 7.29863 6.23689 6.80469 6.60779 6.43203C6.98045 6.05938 7.47439 5.85547 7.99998 5.85547C8.52557 5.85547 9.01951 6.05938 9.39217 6.43203C9.57529 6.61463 9.7205 6.83163 9.81945 7.07056C9.9184 7.30948 9.96913 7.56561 9.96873 7.82422C9.96873 8.3498 9.76307 8.84375 9.39217 9.2164Z" fill="#454256"/>
</svg>
